<svg xmlns="http://www.w3.org/2000/svg" viewBox="96 108 834 128" fill="#111827"><path d="M554.4,167.3 C554.4,183.0 554.2,198.3 554.4,213.6 C554.5,218.0 553.0,219.4 548.7,219.4 C534.7,219.4 534.7,219.6 534.7,205.4 C534.7,180.8 534.7,156.1 534.7,131.5 C534.7,129.7 534.3,127.8 535.3,126.0 C537.9,125.6 539.2,127.7 540.7,129.0 C556.7,142.1 572.6,155.2 588.4,168.6 C591.7,171.3 593.8,171.5 597.2,168.6 C612.3,155.7 627.6,143.2 642.9,130.6 C645.2,128.7 647.2,126.3 650.2,125.4 C652.0,126.9 651.3,128.9 651.3,130.6 C651.4,158.0 651.2,185.5 651.5,213.0 C651.5,218.3 649.8,219.5 644.9,219.4 C631.6,219.2 631.6,219.4 631.6,206.2 C631.6,194.2 631.7,182.2 631.6,170.2 C631.6,168.6 632.0,166.9 630.9,164.9 C625.1,168.2 620.6,173.1 615.7,177.3 C608.9,183.0 602.4,188.9 595.9,195.0 C593.5,197.2 591.9,196.8 589.6,194.8 C579.6,185.8 569.4,176.9 559.2,168.1 C558.0,167.1 556.8,164.1 554.4,167.3 z"/><path d="M731.0,220.3 C714.7,216.9 700.9,210.0 692.2,195.7 C678.3,172.6 686.4,144.1 711.4,131.0 C735.9,118.1 760.9,118.6 784.6,133.0 C815.9,151.9 814.8,194.4 783.1,212.6 C766.9,221.9 749.5,223.3 731.0,220.3 M711.6,190.8 C723.7,209.7 754.7,210.8 770.7,200.8 C793.3,186.6 792.7,155.3 769.1,142.7 C753.6,134.4 737.5,134.9 722.3,143.7 C705.7,153.4 701.2,173.8 711.6,190.8 z"/><path d="M224.9,201.9 C222.8,204.6 219.0,206.8 221.0,210.1 C222.9,213.2 226.8,211.8 229.8,211.0 C244.6,207.5 258.4,201.1 272.1,194.7 C307.0,178.3 340.7,159.7 372.5,137.9 C377.3,134.6 381.9,131.0 385.7,126.6 C386.9,125.2 388.3,123.5 387.3,121.6 C386.2,119.6 384.0,119.3 382.0,119.7 C377.2,120.6 372.7,120.7 371.2,127.5 C369.6,135.0 360.1,138.0 353.8,133.3 C349.0,129.7 345.7,131.4 341.4,134.1 C343.9,137.4 346.1,140.4 348.5,143.4 C350.8,146.3 350.9,148.3 347.1,150.4 C338.5,155.4 338.6,155.6 332.5,147.9 C320.1,132.4 297.7,127.1 278.5,135.2 C260.1,142.9 249.0,161.7 251.4,181.4 C252.0,185.8 253.4,190.1 255.6,194.1 C257.0,196.6 256.4,197.9 253.8,199.1 C243.2,204.2 242.3,203.9 238.2,192.9 C230.7,173.1 237.2,148.6 253.6,134.2 C276.1,114.3 305.3,111.7 331.4,127.1 C337.4,130.6 346.2,127.2 348.3,120.5 C351.2,111.3 360.3,108.1 368.1,113.9 C370.6,115.7 372.7,115.8 375.5,115.0 C380.3,113.6 385.1,112.3 390.2,112.7 C397.9,113.2 400.9,118.5 396.8,125.1 C393.3,130.7 388.4,134.9 383.2,138.9 C356.8,159.5 327.5,175.3 298.0,190.8 C277.8,201.4 257.2,211.3 235.2,217.8 C229.6,219.5 223.9,220.9 218.0,220.2 C211.1,219.3 208.5,214.4 212.0,208.3 C216.7,200.1 224.4,194.8 231.9,189.3 C234.9,191.7 234.5,193.5 232.3,195.4 C229.9,197.5 227.5,199.6 224.9,201.9 z"/><path d="M889.5,180.7 C878.6,180.8 868.1,181.4 857.6,180.5 C844.6,179.3 835.5,169.8 833.8,156.1 C832.2,142.7 838.9,131.1 851.0,126.6 C855.8,124.8 860.7,124.2 865.7,124.2 C885.0,124.1 904.4,124.2 923.7,124.3 C924.6,124.3 925.5,124.7 927.3,125.2 C921.2,130.9 915.9,136.4 909.6,140.7 C908.4,141.5 906.4,141.2 904.8,141.2 C891.6,141.3 878.4,141.3 865.3,141.3 C860.3,141.3 856.7,143.7 854.6,148.1 C852.6,152.1 853.4,156.0 856.2,159.3 C859.1,162.9 863.2,163.6 867.5,163.6 C878.8,163.6 890.1,163.9 901.4,163.5 C917.3,162.9 927.3,174.7 928.2,189.2 C929.3,206.2 919.9,218.5 903.7,219.0 C881.2,219.8 858.7,219.3 836.2,219.2 C835.8,219.2 835.3,218.9 833.7,218.3 C837.4,215.0 840.9,212.3 843.7,209.0 C848.2,203.9 853.6,202.7 860.2,202.9 C872.5,203.3 884.8,203.1 897.2,202.9 C904.6,202.8 909.0,198.3 908.8,191.5 C908.7,186.4 906.1,183.1 901.3,181.4 C897.6,180.2 893.8,180.2 889.5,180.7 z"/><path d="M472.0,163.6 C498.9,160.9 507.3,190.0 499.0,205.2 C494.0,214.3 485.8,218.8 476.1,219.1 C454.0,219.7 431.8,219.3 409.7,219.3 C409.2,219.3 408.7,219.1 408.2,218.9 C407.7,216.5 409.9,215.9 410.9,214.6 C418.7,204.7 428.8,201.6 441.2,202.8 C450.4,203.7 459.9,203.1 469.2,203.0 C477.2,202.9 481.8,198.9 482.0,192.1 C482.2,185.2 477.3,180.3 469.3,180.5 C457.6,180.9 446.0,180.6 434.3,180.6 C419.4,180.6 409.5,171.9 407.0,156.2 C404.8,142.8 412.6,130.5 425.9,126.5 C429.1,125.6 432.4,124.8 435.7,124.8 C455.7,124.6 475.7,124.7 495.7,124.7 C496.8,124.7 498.0,124.4 499.8,126.2 C491.5,131.4 487.6,142.1 475.2,141.4 C463.5,140.7 451.6,141.2 439.8,141.3 C431.9,141.3 427.1,145.5 427.0,152.3 C426.9,159.0 431.6,163.4 439.5,163.5 C450.1,163.7 460.8,163.6 472.0,163.6 z"/><path d="M187.6,204.3 C192.5,209.0 197.2,213.4 201.8,217.7 C201.6,218.2 201.4,218.6 201.2,219.0 C193.5,219.0 185.8,219.1 178.1,218.9 C177.2,218.9 176.1,217.8 175.3,217.1 C159.1,202.7 142.9,188.3 126.7,173.9 C126.1,173.4 125.7,172.7 124.8,171.5 C130.5,166.5 136.1,161.7 141.8,156.9 C152.3,147.9 162.9,139.0 173.4,130.0 C176.1,127.8 178.9,126.6 182.4,126.7 C188.7,127.0 195.0,126.8 201.3,126.8 C201.6,127.3 201.8,127.8 202.1,128.3 C185.5,142.6 168.9,156.8 151.7,171.6 C163.9,182.7 175.6,193.4 187.6,204.3 z"/><path d="M113.9,219.3 C99.0,219.3 99.0,219.3 99.0,204.9 C99.0,181.1 99.0,157.3 99.0,133.5 C99.0,127.3 99.4,126.9 105.5,126.9 C107.1,126.9 108.8,126.9 110.4,126.9 C120.1,126.9 120.1,126.9 120.1,136.3 C120.1,161.9 120.1,187.6 120.2,213.2 C120.2,217.4 119.2,220.0 113.9,219.3 z"/><path d="M278.8,231.4 C269.2,228.3 260.7,224.0 253.9,216.7 C259.4,210.6 266.2,209.6 272.6,213.6 C299.3,230.2 335.2,215.5 342.2,184.8 C343.0,181.6 343.2,178.2 342.9,174.9 C342.7,171.4 343.7,169.2 346.8,167.7 C350.1,166.2 352.7,163.4 356.9,162.6 C359.9,171.0 359.6,179.3 357.7,187.6 C352.5,211.1 332.1,229.6 307.8,233.4 C298.1,234.9 288.6,234.4 278.8,231.4 z"/></svg>
