<svg xmlns="http://www.w3.org/2000/svg" viewBox="94 215 842 611" fill="#ffffff"><path d="M338.9,419.0 C339.0,391.8 338.2,365.2 339.2,338.5 C340.5,300.7 338.0,262.9 338.9,225.1 C339.1,217.7 339.0,217.7 346.5,217.7 C370.8,217.6 395.1,217.7 419.5,217.5 C423.9,217.5 425.2,218.9 425.2,223.2 C425.1,313.9 425.0,404.5 425.2,495.2 C425.2,500.4 423.6,502.8 418.5,504.3 C394.0,511.3 369.6,518.4 344.8,524.4 C339.4,525.7 338.9,525.4 338.9,519.5 C338.9,486.2 338.9,452.8 338.9,419.0 z"/><path d="M439.8,358.0 C437.4,343.9 443.1,334.5 452.9,325.1 C488.3,290.7 522.7,255.4 557.4,220.4 C559.0,218.8 560.6,217.6 563.0,217.6 C597.6,217.7 632.3,217.7 666.9,217.7 C667.6,217.7 668.2,217.9 670.3,218.4 C595.0,295.5 518.5,370.0 441.7,444.3 C441.1,444.0 440.4,443.8 439.8,443.5 C439.8,415.2 439.8,386.8 439.8,358.0 z"/><path d="M757.3,376.3 C710.7,408.3 661.1,434.2 610.3,457.9 C566.1,478.6 520.9,496.9 475.0,513.7 C423.9,532.3 372.1,548.3 318.7,558.7 C292.5,563.8 266.2,567.8 239.4,567.2 C230.2,567.0 221.1,565.8 212.4,562.7 C198.1,557.5 194.0,548.1 199.4,533.9 C204.7,520.4 214.2,509.8 224.2,499.8 C250.4,473.3 280.0,451.3 313.2,434.2 C315.1,433.2 317.0,431.4 319.5,433.1 C319.4,435.9 317.0,436.6 315.4,437.8 C297.2,450.8 279.2,463.9 262.5,478.8 C251.5,488.6 241.4,499.2 233.2,511.5 C230.7,515.2 228.7,519.3 227.4,523.6 C224.7,532.6 227.8,539.4 236.5,543.1 C241.9,545.4 247.7,546.4 253.5,546.7 C284.7,548.2 315.2,542.9 345.5,536.2 C393.0,525.6 439.3,510.7 485.0,494.0 C545.9,471.6 605.4,446.0 662.5,415.0 C697.6,395.8 731.8,375.1 763.0,349.8 C779.5,336.5 795.0,322.2 806.6,304.0 C809.0,300.2 810.8,296.1 811.8,291.7 C813.7,283.8 810.8,278.4 803.0,275.8 C795.3,273.2 787.3,272.8 779.3,273.7 C769.0,274.8 758.8,276.3 748.6,277.7 C747.3,277.9 746.0,278.0 744.7,277.9 C743.1,277.8 741.6,277.1 741.3,275.4 C741.0,273.9 742.1,272.9 743.3,272.3 C746.3,270.8 749.3,269.1 752.4,268.3 C771.1,263.1 790.0,259.1 809.5,259.8 C816.3,260.0 822.8,261.3 829.0,263.7 C841.0,268.3 846.0,278.3 842.2,290.6 C838.4,302.9 830.4,312.5 822.0,321.8 C803.1,342.9 780.8,360.1 757.3,376.3 z"/><path d="M626.5,479.5 C652.5,507.3 678.2,534.9 703.9,562.3 C701.9,564.8 699.9,564.2 698.2,564.2 C666.6,564.2 634.9,564.2 603.3,564.2 C600.2,564.2 597.6,563.7 595.3,561.2 C577.6,542.0 559.7,522.9 541.9,503.8 C541.0,502.8 539.9,502.0 539.8,500.2 C541.8,498.1 544.8,497.4 547.5,496.3 C568.6,487.7 589.6,478.8 610.3,469.2 C613.8,467.7 616.1,467.8 618.5,470.8 C620.9,473.8 623.6,476.5 626.5,479.5 z"/><path d="M602.7,693.6 C598.9,698.5 595.3,703.0 591.3,708.2 C579.5,695.0 569.8,680.9 558.4,666.7 C558.2,669.4 558.0,671.1 558.0,672.8 C558.0,684.3 557.9,695.8 558.1,707.3 C558.1,711.5 556.8,713.5 552.3,713.2 C547.8,712.9 543.3,713.0 538.8,713.2 C535.3,713.3 533.7,712.0 533.7,708.2 C533.8,683.3 533.8,658.3 533.7,633.3 C533.7,629.8 535.1,628.4 538.5,628.7 C538.6,628.7 538.8,628.7 539.0,628.7 C549.9,626.8 557.7,630.3 563.9,640.0 C570.5,650.3 579.0,659.5 586.7,669.1 C587.9,670.6 588.9,672.5 591.6,673.6 C596.5,667.7 601.5,661.6 606.5,655.5 C612.7,647.8 618.9,640.2 624.9,632.4 C627.1,629.7 629.5,628.6 633.0,628.6 C649.0,628.6 649.0,628.5 649.0,644.5 C649.1,664.5 649.1,684.5 649.0,704.5 C649.0,713.1 649.0,713.1 640.1,713.1 C636.8,713.1 633.4,713.0 630.1,713.2 C626.1,713.4 624.5,711.9 624.6,707.7 C624.8,694.0 624.7,680.4 624.7,665.5 C616.9,675.4 609.9,684.4 602.7,693.6 z"/><path d="M328.4,711.7 C310.3,714.1 292.3,714.5 274.7,712.1 C251.8,709.0 238.5,689.4 240.8,665.1 C242.9,643.9 260.0,628.8 282.0,628.7 C293.8,628.6 305.6,628.7 317.5,628.7 C340.5,628.7 356.6,642.9 359.6,666.4 C362.1,686.4 350.4,706.4 328.4,711.7 M334.6,665.2 C331.6,654.4 325.3,649.3 314.1,649.1 C305.5,649.0 296.8,649.4 288.2,649.1 C272.2,648.4 263.6,659.4 265.9,675.3 C267.5,686.3 274.0,692.3 285.0,692.6 C294.5,692.9 304.0,692.9 313.5,692.6 C325.4,692.2 332.5,686.8 334.5,677.1 C335.2,673.4 335.0,669.8 334.6,665.2 z"/><path d="M687.6,684.0 C683.5,665.8 686.1,649.9 700.9,637.5 C707.8,631.8 716.0,629.0 724.9,628.8 C738.3,628.5 751.8,628.5 765.3,628.7 C786.7,629.0 803.6,646.8 804.5,668.3 C805.5,693.2 788.8,713.4 760.3,713.2 C749.3,713.1 738.3,713.3 727.3,713.2 C708.4,713.0 693.7,702.3 687.6,684.0 M768.4,650.9 C765.5,649.5 762.4,649.1 759.2,649.1 C749.9,649.1 740.5,649.0 731.2,649.2 C718.5,649.3 711.8,656.0 711.0,668.9 C710.2,682.5 716.1,691.2 728.5,692.3 C739.4,693.4 750.5,693.4 761.4,692.2 C771.9,691.2 777.7,685.6 779.5,676.5 C781.7,665.3 778.1,656.6 768.4,650.9 z"/><path d="M420.1,651.0 C417.0,657.0 419.0,660.7 425.5,660.8 C437.1,660.9 448.8,660.8 460.5,660.9 C466.0,660.9 471.4,661.6 476.6,663.5 C486.9,667.2 493.1,675.9 493.2,686.7 C493.4,697.4 487.2,706.5 477.2,710.4 C472.5,712.2 467.6,713.1 462.6,713.1 C442.8,713.1 422.9,713.1 403.1,713.2 C399.1,713.2 397.4,712.1 397.5,707.8 C398.0,689.7 395.4,693.0 412.6,692.8 C427.6,692.6 442.6,692.7 457.6,692.7 C464.4,692.7 467.6,690.8 467.7,687.0 C467.8,683.1 464.8,681.4 457.8,681.3 C446.4,681.3 435.1,681.3 423.8,681.4 C420.4,681.4 417.2,681.0 413.9,680.3 C401.3,677.7 392.9,668.0 392.7,655.5 C392.5,643.2 400.7,632.8 413.1,629.9 C416.2,629.1 419.3,628.6 422.5,628.7 C442.5,628.7 462.5,628.8 482.5,628.6 C487.0,628.6 488.5,629.9 488.4,634.5 C487.9,649.2 488.1,649.2 473.6,649.1 C458.4,649.1 443.2,649.1 428.1,649.1 C425.4,649.2 422.7,648.9 420.1,651.0 z"/><path d="M874.1,649.1 C871.3,649.2 868.9,649.1 866.6,649.4 C863.4,649.8 861.5,651.9 861.5,655.1 C861.5,658.2 863.5,660.0 866.4,660.5 C868.7,660.9 871.1,660.8 873.4,660.9 C885.7,661.2 898.1,659.9 910.3,661.8 C928.1,664.4 938.0,679.9 932.2,696.0 C928.7,705.9 920.9,710.4 911.2,712.3 C904.1,713.7 896.9,713.0 889.7,713.1 C875.4,713.1 861.1,713.0 846.7,713.2 C842.2,713.2 840.6,711.8 840.7,707.1 C841.3,689.8 839.7,693.0 855.3,692.8 C869.8,692.6 884.3,692.7 898.7,692.7 C905.4,692.7 908.8,690.7 908.6,686.8 C908.4,683.2 905.3,681.4 898.9,681.3 C887.4,681.3 875.9,681.5 864.4,681.3 C850.8,681.0 840.8,674.0 837.6,662.8 C832.5,645.0 844.4,629.4 864.3,628.8 C884.8,628.3 905.3,628.7 925.7,628.7 C928.6,628.7 930.2,629.5 929.6,632.7 C929.2,635.5 929.3,638.4 928.9,641.2 C928.1,648.0 927.0,649.0 920.1,649.1 C904.9,649.1 889.7,649.1 874.1,649.1 z"/><path d="M172.7,628.8 C184.4,628.8 195.7,628.8 207.0,628.8 C207.2,629.3 207.4,629.7 207.6,630.2 C190.7,642.2 173.7,654.1 156.0,666.6 C173.7,681.8 190.9,696.6 208.0,711.3 C206.4,713.5 204.8,713.0 203.3,713.0 C199.5,713.1 195.6,712.6 191.9,713.2 C178.8,715.4 168.9,710.2 160.1,701.0 C154.0,694.6 146.8,689.4 140.3,683.4 C137.6,680.8 135.6,681.4 132.5,683.0 C124.9,686.9 122.5,692.4 122.9,701.0 C123.6,715.0 124.8,713.0 110.8,713.1 C96.8,713.2 96.8,713.1 96.8,699.3 C96.8,678.3 96.8,657.3 96.8,636.3 C96.8,628.7 96.8,628.7 104.6,628.7 C109.1,628.7 113.6,628.9 118.1,628.6 C122.1,628.4 123.3,630.1 123.2,634.0 C123.0,641.4 123.1,649.0 123.2,656.5 C123.2,658.2 122.8,660.1 124.3,662.7 C140.7,651.9 155.7,639.3 172.7,628.8 z"/><path d="M552.4,397.6 C565.1,411.2 577.5,424.6 589.6,437.6 C588.8,440.0 587.4,440.3 586.2,440.8 C563.8,450.3 541.4,459.6 519.0,469.2 C515.5,470.7 513.1,470.4 510.4,467.4 C501.9,457.9 493.2,448.7 484.5,439.6 C482.0,437.0 481.7,435.4 484.5,432.7 C501.1,417.1 517.6,401.3 533.9,385.4 C536.8,382.6 538.7,382.8 541.2,385.7 C544.7,389.7 548.5,393.5 552.4,397.6 z"/><path d="M582.9,338.9 C608.9,321.2 636.3,306.9 665.1,295.1 C668.0,293.9 669.4,292.3 670.1,289.1 C673.9,272.0 689.3,260.9 705.6,263.0 C722.9,265.2 734.6,279.1 734.4,297.4 C734.2,314.1 721.2,328.6 704.5,329.9 C690.7,330.9 680.2,324.6 673.5,312.7 C671.0,308.4 668.8,307.5 664.1,309.2 C637.1,319.1 610.7,330.6 584.7,343.0 C584.1,343.3 583.5,343.6 582.9,343.8 C581.6,344.3 580.0,345.7 578.9,344.0 C577.6,342.2 579.5,341.4 580.6,340.5 C581.2,340.0 582.0,339.5 582.9,338.9 z"/><path d="M775.5,763.5 C774.6,766.6 773.9,769.3 773.1,772.0 C772.7,773.5 772.1,775.0 770.2,775.1 C768.3,775.1 767.8,773.6 767.4,772.1 C766.4,769.0 765.5,765.8 764.1,761.3 C762.8,765.6 761.8,768.8 760.8,771.9 C760.3,773.4 759.9,774.9 758.0,775.0 C756.1,775.1 755.5,773.6 755.1,772.2 C753.3,766.2 751.5,760.2 749.7,754.0 C754.5,752.8 754.4,756.1 755.2,758.3 C756.0,760.7 756.7,763.1 757.9,767.0 C759.4,762.5 760.4,759.3 761.4,756.1 C761.8,754.8 762.4,753.6 764.1,753.6 C765.8,753.6 766.2,754.9 766.6,756.2 C767.7,759.3 768.0,762.6 770.5,766.0 C771.6,762.4 772.5,759.3 773.4,756.2 C773.8,754.6 774.5,753.2 776.4,753.7 C778.6,754.3 777.7,756.0 777.4,757.4 C776.9,759.3 776.2,761.2 775.5,763.5 z"/><path d="M632.0,801.9 C635.1,800.4 635.4,802.4 635.4,804.3 C635.5,809.7 635.5,815.0 635.5,820.3 C635.5,821.5 635.4,822.7 634.1,823.2 C632.6,823.7 631.6,822.9 630.7,821.8 C627.5,818.3 625.5,813.7 621.4,810.5 C619.4,813.7 620.6,816.9 620.2,819.9 C620.1,821.2 620.1,822.8 618.4,823.0 C616.3,823.2 616.0,821.5 616.0,819.9 C616.0,814.8 616.0,809.6 616.1,804.5 C616.1,803.1 616.4,801.7 618.0,801.3 C619.5,800.8 620.5,801.8 621.4,802.8 C624.5,806.3 626.5,810.5 630.3,813.9 C632.8,810.1 630.9,805.9 632.0,801.9 z"/><path d="M379.0,774.6 C368.7,776.6 362.3,772.4 362.4,764.2 C362.5,758.4 366.1,754.0 371.7,753.0 C377.4,751.9 382.9,754.8 385.0,760.1 C387.1,765.4 384.9,770.8 379.0,774.6 M371.2,757.5 C367.1,759.3 366.4,762.7 367.4,766.6 C368.2,769.5 370.2,771.4 373.4,771.6 C377.0,771.8 379.2,769.8 380.8,766.8 C383.3,762.4 378.8,755.5 371.2,757.5 z"/><path d="M435.9,822.1 C426.0,826.1 417.2,820.5 418.2,811.2 C418.7,806.4 421.1,802.8 426.0,801.3 C430.9,799.9 435.3,800.9 438.6,804.9 C441.8,808.6 442.2,813.0 440.0,817.4 C439.2,819.3 437.9,820.8 435.9,822.1 M436.7,810.9 C434.5,804.8 429.0,802.8 424.9,806.7 C422.5,809.1 421.5,812.1 423.1,815.4 C424.6,818.5 427.2,820.2 430.7,819.5 C434.9,818.7 436.9,815.9 436.7,810.9 z"/><path d="M156.9,763.1 C157.7,759.1 154.3,753.6 161.3,753.0 C169.9,752.2 175.4,755.5 176.6,762.2 C177.6,768.1 174.5,773.5 168.8,774.8 C166.0,775.4 162.9,775.2 159.9,775.2 C157.6,775.2 156.9,773.5 156.9,771.5 C156.9,768.8 156.9,766.2 156.9,763.1 M168.1,770.8 C170.4,769.9 171.9,768.1 172.4,765.7 C173.1,762.8 172.1,760.5 169.9,758.6 C167.8,756.9 165.2,756.6 162.9,757.6 C160.3,758.6 161.6,761.3 161.3,763.3 C161.2,764.3 161.2,765.3 161.3,766.3 C161.3,771.9 161.6,772.1 168.1,770.8 z"/><path d="M597.3,804.8 C600.6,811.0 600.4,816.1 596.9,819.9 C593.6,823.6 588.1,824.9 583.7,822.8 C579.2,820.8 576.9,817.1 576.8,812.2 C576.8,807.7 578.8,804.0 582.9,802.1 C588.0,799.7 592.9,800.4 597.3,804.8 M587.0,819.6 C590.7,820.0 593.4,818.4 595.0,815.1 C596.3,812.2 595.8,809.4 593.6,807.3 C591.7,805.3 589.4,804.0 586.4,805.0 C583.5,806.1 581.6,807.9 581.3,811.1 C581.0,815.0 582.4,818.0 587.0,819.6 z"/><path d="M671.0,771.9 C665.3,776.7 658.4,776.7 654.1,772.2 C650.1,768.0 649.9,761.4 653.8,756.7 C657.5,752.3 664.3,751.5 669.2,754.9 C674.6,758.7 675.4,765.0 671.0,771.9 M656.6,760.2 C654.4,765.5 655.8,769.8 660.1,771.3 C664.1,772.7 668.5,770.3 669.4,766.1 C670.1,763.0 669.4,760.0 666.6,758.2 C663.2,756.2 659.9,756.5 656.6,760.2 z"/><path d="M839.5,768.9 C840.3,770.9 841.8,772.2 841.6,774.3 C839.7,776.0 838.3,774.9 837.2,773.3 C836.4,772.0 835.7,770.7 834.9,769.4 C834.1,768.1 832.9,767.2 831.2,767.6 C829.5,768.0 829.4,769.3 829.3,770.7 C829.1,772.4 829.7,774.9 827.0,774.8 C824.5,774.7 825.0,772.2 824.9,770.5 C824.8,766.2 825.0,761.8 824.9,757.5 C824.8,754.3 826.4,753.0 829.4,753.0 C831.9,753.0 834.4,752.9 836.8,753.7 C841.2,755.2 843.0,759.7 840.8,763.7 C839.9,765.3 838.2,766.5 839.5,768.9 M834.6,763.2 C836.4,762.5 838.0,761.5 837.1,759.3 C836.1,756.8 833.7,757.1 831.6,757.4 C829.4,757.7 829.1,759.4 829.4,761.1 C829.7,763.9 831.8,763.6 834.6,763.2 z"/><path d="M526.2,769.0 C526.3,764.6 526.3,760.6 526.4,756.6 C526.4,755.3 526.5,754.1 528.0,753.3 C533.6,750.6 543.1,754.4 545.3,760.3 C547.9,767.1 543.8,774.1 536.6,775.2 C535.1,775.4 533.6,775.1 532.1,775.3 C527.5,776.0 525.7,773.9 526.2,769.0 M534.5,757.2 C532.5,757.2 530.5,757.5 530.5,759.9 C530.5,763.6 529.2,767.6 531.5,771.0 C531.9,771.6 533.3,771.6 534.3,771.5 C538.3,771.1 541.3,769.4 541.7,764.9 C542.1,760.3 539.9,757.7 534.5,757.2 z"/><path d="M306.1,773.0 C305.1,771.4 304.4,770.1 303.6,768.8 C302.8,767.5 301.6,767.2 300.1,767.4 C298.4,767.7 298.2,769.0 298.2,770.4 C298.1,771.2 298.1,772.1 297.9,772.9 C297.7,773.9 297.2,774.8 296.0,774.9 C294.5,775.0 293.9,773.9 293.9,772.7 C293.8,767.0 293.8,761.3 293.9,755.7 C293.9,755.0 294.5,754.1 295.0,753.6 C297.0,752.0 306.4,752.9 308.4,754.9 C311.6,758.1 311.9,761.6 308.8,765.1 C307.5,766.5 307.9,767.8 308.7,769.2 C309.5,770.8 310.3,772.4 311.2,774.0 C308.8,775.8 307.5,774.9 306.1,773.0 M301.5,757.2 C298.4,757.1 297.9,759.0 298.3,761.5 C298.6,763.8 300.4,763.7 302.1,763.6 C304.2,763.4 306.2,762.6 306.4,760.3 C306.6,757.6 304.3,757.3 301.5,757.2 z"/><path d="M331.6,774.7 C328.6,775.1 328.7,773.2 328.7,771.5 C328.6,766.7 328.7,761.9 328.6,757.0 C328.6,754.3 329.7,753.0 332.4,753.0 C335.1,753.0 337.8,752.7 340.4,753.6 C344.0,754.8 346.5,757.8 345.1,761.2 C343.0,765.9 342.5,770.0 346.1,774.3 C342.4,776.1 341.3,773.9 340.0,772.0 C338.7,770.2 338.1,767.2 335.2,767.5 C331.8,768.0 333.6,771.4 332.7,773.3 C332.5,773.7 332.2,774.1 331.6,774.7 M340.9,760.9 C341.1,756.1 337.6,757.2 335.1,757.4 C332.8,757.6 332.3,759.9 332.9,761.5 C333.9,764.8 336.5,763.4 338.6,762.8 C339.3,762.6 339.9,761.9 340.9,760.9 z"/><path d="M483.6,757.6 C486.7,764.1 485.9,769.8 481.5,773.2 C477.7,776.2 471.1,776.2 467.0,773.1 C462.9,770.0 461.5,764.0 463.8,759.1 C467.4,751.6 476.8,750.7 483.6,757.6 M474.4,771.7 C479.9,770.4 482.7,766.7 481.3,762.3 C480.1,758.4 477.3,756.7 473.3,757.1 C469.6,757.5 467.5,759.6 467.3,763.3 C466.9,767.9 468.7,771.0 474.4,771.7 z"/><path d="M660.3,814.1 C657.8,814.3 656.9,815.5 657.4,817.5 C657.8,819.4 659.4,819.3 660.9,819.6 C663.2,820.1 667.6,818.0 667.6,821.3 C667.6,825.2 663.1,823.2 660.6,823.3 C652.7,823.6 652.7,823.4 652.7,815.5 C652.7,812.0 652.8,808.5 652.7,805.1 C652.6,802.0 654.0,800.8 656.9,800.9 C659.7,800.9 662.5,800.9 665.3,801.0 C666.5,801.0 667.8,801.4 667.9,802.8 C668.1,804.6 666.7,805.0 665.3,805.1 C663.5,805.3 661.6,805.2 659.8,805.3 C658.3,805.4 657.2,806.1 657.4,807.8 C657.5,809.3 658.6,809.7 659.8,809.8 C660.2,809.8 660.5,809.8 660.8,809.8 C662.8,810.2 666.1,808.9 666.2,811.8 C666.3,815.3 662.7,813.5 660.3,814.1 z"/><path d="M567.3,753.0 C570.4,753.0 573.1,753.0 575.7,753.1 C576.9,753.2 578.1,753.7 578.0,755.2 C577.9,756.4 576.8,756.8 575.8,756.9 C574.0,757.1 572.2,757.1 570.4,757.2 C568.7,757.3 567.3,757.7 567.4,759.7 C567.5,761.5 568.9,761.6 570.3,761.9 C572.4,762.2 575.0,761.1 576.6,763.9 C575.7,766.7 573.2,765.8 571.3,766.0 C569.4,766.2 567.4,766.0 567.4,768.7 C567.3,771.6 569.5,771.4 571.5,771.7 C573.7,772.0 577.8,770.3 577.8,773.3 C577.8,777.0 573.6,775.1 571.3,775.2 C562.9,775.5 562.9,775.3 562.9,766.9 C562.9,763.8 563.0,760.6 562.9,757.4 C562.8,754.6 563.9,753.0 567.3,753.0 z"/><path d="M264.5,755.6 C266.3,752.6 268.5,752.1 269.9,755.1 C272.8,761.3 275.2,767.8 277.8,774.0 C275.4,775.9 274.3,774.9 273.2,773.4 C270.0,769.0 265.0,768.9 261.7,773.1 C260.8,774.2 260.1,775.6 258.5,774.9 C256.5,774.0 257.6,772.4 258.1,771.1 C260.1,766.0 262.2,761.0 264.5,755.6 M267.4,765.9 C271.7,763.9 267.9,762.8 267.4,761.3 C266.2,762.8 264.1,764.2 267.4,765.9 z"/><path d="M858.6,763.0 C858.6,753.2 861.6,750.9 870.9,753.1 C872.1,753.4 873.4,753.6 873.3,755.2 C873.3,756.7 872.0,757.0 870.9,757.0 C869.4,757.1 867.9,757.1 866.4,757.2 C864.6,757.2 862.9,757.6 863.0,759.8 C863.0,762.0 864.8,761.8 866.3,762.0 C868.3,762.2 870.7,761.3 872.0,764.0 C870.9,766.6 868.5,765.8 866.5,766.0 C864.7,766.2 862.7,766.2 862.6,768.8 C862.5,771.7 864.7,771.5 866.7,771.7 C869.0,772.0 871.7,770.7 874.1,773.9 C869.5,776.3 864.8,775.7 860.6,774.9 C857.2,774.2 859.0,770.4 858.7,768.0 C858.5,766.5 858.6,765.0 858.6,763.0 z"/><path d="M806.7,765.4 C807.7,767.9 808.6,770.1 809.4,772.2 C809.7,773.2 809.9,774.3 808.8,774.9 C807.8,775.4 806.9,775.0 806.1,774.2 C799.8,768.6 799.7,768.6 793.1,774.4 C792.4,775.0 791.6,775.1 790.7,774.7 C789.1,773.0 790.6,771.3 791.2,769.7 C793.0,765.1 794.9,760.5 796.8,755.9 C797.3,754.7 797.9,753.4 799.5,753.3 C801.2,753.2 802.1,754.4 802.7,755.9 C804.0,759.0 805.3,762.0 806.7,765.4 M798.1,763.5 C797.6,767.6 800.0,765.7 802.6,765.7 C801.0,764.0 802.3,759.7 798.1,763.5 z"/><path d="M193.7,768.9 C193.7,764.6 193.7,760.8 193.7,756.9 C193.7,755.4 193.7,753.6 195.6,753.4 C199.9,752.8 204.4,752.2 208.7,754.2 C207.7,757.9 205.0,756.8 202.9,757.1 C200.9,757.4 197.8,756.3 197.7,759.4 C197.5,762.9 200.6,761.6 202.6,761.9 C204.1,762.2 206.0,761.7 207.1,763.7 C206.2,766.8 203.5,765.8 201.4,766.0 C199.6,766.2 197.5,766.0 197.4,768.6 C197.3,771.6 199.4,771.5 201.5,771.7 C204.0,771.9 206.9,770.5 208.8,773.4 C206.3,775.3 196.4,776.2 194.7,774.6 C193.2,773.1 193.9,771.2 193.7,768.9 z"/><path d="M391.8,819.3 C394.3,819.8 396.9,820.1 397.4,817.4 C398.0,814.7 395.2,814.5 393.5,813.8 C392.6,813.4 391.6,813.2 390.7,812.8 C388.0,811.6 386.3,809.7 386.5,806.6 C386.8,803.3 389.0,801.7 392.0,800.9 C393.9,800.5 396.0,800.5 397.8,801.3 C399.2,801.9 401.0,802.5 400.6,804.3 C400.1,806.4 398.4,805.8 397.0,805.3 C395.0,804.6 392.5,804.2 391.8,806.5 C390.8,809.3 393.6,809.3 395.4,810.0 C401.1,812.0 403.3,814.9 402.0,818.8 C400.6,822.8 395.1,825.0 390.2,823.3 C388.5,822.7 386.1,822.1 386.8,819.8 C387.6,817.2 389.8,818.8 391.8,819.3 z"/><path d="M691.2,819.7 C693.4,819.6 695.5,819.4 695.5,817.0 C695.5,814.9 693.5,814.6 692.0,814.1 C691.5,813.9 691.1,813.7 690.6,813.5 C685.3,811.5 683.3,808.4 685.0,804.8 C686.7,801.1 692.9,799.5 696.8,801.8 C698.0,802.4 699.3,803.1 698.5,804.8 C697.9,806.1 696.7,805.9 695.5,805.5 C694.4,805.1 693.2,804.7 692.1,804.7 C690.9,804.6 689.8,805.1 689.4,806.4 C689.1,807.8 689.8,808.7 691.0,809.2 C692.3,809.8 693.8,810.2 695.2,810.7 C698.2,811.9 700.5,813.7 700.2,817.3 C700.0,820.9 697.5,822.8 694.1,823.5 C693.0,823.7 691.8,823.9 690.7,823.8 C688.4,823.4 686.0,823.0 684.7,820.7 C684.5,820.3 684.8,819.3 685.2,819.0 C687.2,817.5 688.9,819.7 691.2,819.7 z"/><path d="M240.0,755.8 C238.9,758.3 237.2,757.4 235.6,757.2 C233.8,757.0 231.9,756.6 230.7,758.7 C231.1,761.8 234.0,761.6 235.9,762.4 C239.0,763.6 241.8,765.1 241.7,768.9 C241.6,771.8 240.0,774.1 237.1,774.8 C233.6,775.7 229.9,776.0 226.7,773.6 C226.0,773.0 225.7,772.2 226.2,771.3 C226.8,770.3 227.7,770.2 228.8,770.6 C230.3,771.1 231.8,771.9 233.5,771.7 C235.1,771.6 236.6,771.2 237.1,769.6 C237.6,767.7 236.1,766.9 234.7,766.3 C233.2,765.7 231.6,765.3 230.1,764.6 C227.4,763.5 225.6,761.6 225.9,758.5 C226.2,755.3 228.5,753.6 231.5,753.1 C234.6,752.6 237.8,752.2 240.0,755.8 z"/><path d="M627.3,761.8 C629.1,762.6 630.8,763.0 632.2,763.9 C636.3,766.6 636.1,772.2 631.6,774.4 C628.1,776.1 624.5,775.8 621.0,774.2 C619.9,773.7 618.8,773.0 619.5,771.5 C620.1,770.2 621.3,770.4 622.5,770.7 C624.0,771.1 625.4,771.5 626.9,771.6 C628.5,771.8 629.9,771.1 630.4,769.4 C630.9,767.5 629.2,766.9 627.8,766.3 C626.4,765.8 625.0,765.4 623.6,764.9 C621.0,763.7 619.0,762.0 619.3,758.8 C619.6,755.6 621.7,753.8 624.8,753.2 C626.3,753.0 627.8,752.8 629.3,753.1 C631.1,753.4 633.9,753.6 633.4,756.3 C632.9,759.0 630.5,757.3 628.8,757.1 C627.0,757.0 625.2,756.8 623.8,758.3 C623.6,760.8 625.5,761.0 627.3,761.8 z"/><path d="M501.7,812.5 C501.7,809.4 501.6,806.8 501.7,804.1 C501.7,802.9 501.8,801.6 503.3,801.5 C504.9,801.3 505.3,802.5 505.3,803.7 C505.5,807.5 505.9,811.4 505.6,815.1 C505.2,820.7 501.3,824.1 496.0,823.9 C490.8,823.7 487.7,820.2 487.6,814.3 C487.5,810.8 487.5,807.3 487.5,803.8 C487.5,802.6 487.7,801.4 489.3,801.4 C490.8,801.3 491.2,802.5 491.3,803.7 C491.3,806.5 491.3,809.4 491.3,812.2 C491.3,815.7 491.7,819.2 496.1,819.6 C500.6,819.9 501.5,816.6 501.7,812.5 z"/><path d="M526.0,812.1 C527.3,819.2 530.0,820.9 536.5,818.8 C537.9,818.4 539.5,817.5 540.3,819.4 C541.1,821.3 539.3,822.0 538.0,822.6 C533.3,825.1 527.3,823.8 524.0,819.7 C520.9,815.8 520.7,809.4 523.7,805.3 C526.8,801.2 532.9,799.5 537.6,801.6 C539.0,802.2 540.7,802.9 540.1,804.7 C539.5,806.7 537.9,806.0 536.4,805.5 C530.2,803.8 527.7,805.3 526.0,812.1 z"/><path d="M701.3,762.5 C704.7,765.5 702.0,766.1 700.0,766.0 C695.5,765.7 693.5,767.4 694.0,772.0 C694.1,773.3 693.6,774.9 691.9,774.9 C689.8,774.9 689.8,773.1 689.8,771.6 C689.7,766.6 689.8,761.6 689.8,756.6 C689.8,755.0 690.2,753.5 692.0,753.3 C695.5,752.8 699.0,752.8 702.5,753.3 C703.5,753.4 704.4,753.9 704.4,755.2 C704.3,756.4 703.4,756.8 702.4,756.9 C700.9,757.1 699.4,757.1 697.9,757.2 C696.2,757.3 694.3,757.2 694.3,759.6 C694.3,761.9 696.3,761.9 697.9,762.0 C698.9,762.1 699.9,762.2 701.3,762.5 z"/><path d="M344.4,801.3 C347.0,801.1 347.5,802.3 346.4,804.0 C343.1,809.3 338.8,814.1 339.6,821.1 C339.7,822.1 338.9,823.0 337.6,823.0 C336.7,823.0 335.9,822.3 336.0,821.5 C337.0,814.3 332.2,809.5 328.9,804.0 C328.5,803.3 328.4,802.5 329.3,801.3 C334.5,800.8 334.2,807.1 337.9,808.8 C340.4,806.9 341.1,803.2 344.4,801.3 z"/><path d="M725.7,761.4 C725.8,758.6 724.9,757.2 722.3,757.2 C721.0,757.1 719.4,756.9 719.4,755.2 C719.5,753.1 721.3,753.1 722.8,753.1 C726.4,753.0 730.1,753.1 733.7,753.2 C734.9,753.3 736.1,753.8 736.0,755.3 C735.9,756.4 734.9,757.1 733.9,757.0 C729.4,757.0 729.4,759.6 729.8,763.0 C730.1,766.1 730.0,769.3 729.9,772.4 C729.8,773.8 729.2,775.1 727.5,774.9 C726.1,774.8 725.8,773.5 725.8,772.3 C725.7,768.8 725.7,765.3 725.7,761.4 z"/><path d="M457.6,817.3 C457.6,812.8 457.6,808.6 457.6,804.5 C457.6,803.1 457.7,801.6 459.4,801.4 C461.4,801.2 461.8,802.9 461.8,804.4 C461.9,808.1 462.1,811.7 461.8,815.4 C461.6,818.6 462.6,819.8 466.0,819.7 C468.0,819.6 471.7,818.4 471.7,821.5 C471.7,824.9 468.1,823.0 466.1,823.4 C465.1,823.6 464.1,823.3 463.1,823.4 C458.8,823.9 456.8,822.2 457.6,817.3 z"/><path d="M433.8,769.9 C433.8,765.1 433.7,760.7 433.8,756.4 C433.8,755.1 433.8,753.6 435.6,753.5 C437.4,753.4 437.8,754.9 437.9,756.2 C438.0,759.4 438.2,762.5 438.0,765.7 C437.7,769.9 438.9,772.5 443.7,771.7 C444.5,771.6 445.4,771.7 446.2,771.8 C447.3,771.9 448.2,772.3 448.1,773.6 C448.1,774.5 447.4,775.1 446.5,775.1 C443.0,775.2 439.5,775.4 436.1,775.1 C433.3,774.8 433.9,772.2 433.8,769.9 z"/><path d="M409.5,771.6 C412.2,772.1 414.9,770.9 416.9,773.0 C414.8,775.3 404.9,776.3 403.2,774.5 C403.0,774.3 402.8,774.0 402.8,773.7 C402.8,767.4 402.8,761.1 402.9,754.8 C402.9,753.9 403.8,753.4 404.7,753.5 C405.9,753.7 406.3,754.7 406.3,755.7 C406.3,759.5 406.3,763.3 406.3,767.2 C406.3,769.2 406.3,771.3 409.5,771.6 z"/><path d="M559.8,801.7 C562.3,808.2 560.9,814.6 561.0,821.0 C561.0,822.0 560.3,822.8 559.1,823.0 C557.9,823.1 557.2,822.3 557.1,821.3 C556.7,815.2 556.5,809.0 557.2,802.9 C557.3,801.8 558.3,801.4 559.8,801.7 z"/></svg>
